<svg viewBox="0 0 316 143" xmlns="http://www.w3.org/2000/svg" xml:space="preserve" style="fill-rule:evenodd;clip-rule:evenodd;stroke-linejoin:round;stroke-miterlimit:2"><path d="m157.906 86.51-.002-.001a34.851 34.851 0 0 0-47.611 12.757L40.58 220.012l.001.001a34.856 34.856 0 0 0 47.612-12.757L157.906 86.51Zm57.84 0-.001-.001a34.852 34.852 0 0 0-47.612 12.757 104244377.216 104244377.216 0 0 1-69.711 120.747 34.856 34.856 0 0 0 47.611-12.757L215.746 86.51Zm40.574-4.67a34.854 34.854 0 0 1 30.346 17.426l69.713 120.746-.002.001a34.856 34.856 0 0 1-47.611-12.757l-52.446-90.839-52.446 90.839a34.854 34.854 0 0 1-47.611 12.757l-.002-.001 69.713-120.746A34.852 34.852 0 0 1 256.32 81.84Z" style="fill:#fff" transform="matrix(1 0 0 1 -40.58 -81.839)"/></svg>